<?xml version="1.0" standalone="no"?>
<!DOCTYPE svg PUBLIC "-//W3C//DTD SVG 20010904//EN"
 "http://www.w3.org/TR/2001/REC-SVG-20010904/DTD/svg10.dtd">
<svg version="1.0" xmlns="http://www.w3.org/2000/svg"
 width="700.000000pt" height="700.000000pt" viewBox="0 0 700.000000 700.000000"
 preserveAspectRatio="xMidYMid meet">
<metadata>
Created by potrace 1.14, written by Peter Selinger 2001-2017
</metadata>
<g transform="translate(0.000000,700.000000) scale(0.100000,-0.100000)"
fill="#000000" stroke="none">
<path d="M1695 6761 c-22 -10 -59 -39 -83 -64 -53 -58 -148 -203 -186 -284
l-29 -61 -271 -5 c-248 -4 -279 -7 -366 -30 -178 -46 -321 -127 -454 -256 -98
-95 -154 -173 -210 -292 -74 -156 -91 -236 -90 -429 1 -135 4 -179 22 -241 62
-228 202 -434 384 -567 l58 -42 2 -1833 3 -1832 28 -80 c43 -121 99 -209 197
-307 75 -74 102 -93 191 -137 183 -88 -45 -81 2609 -81 2654 0 2426 -7 2609
81 89 44 116 63 191 137 98 98 154 186 197 307 l28 80 0 1316 0 1316 -28 40
c-37 53 -110 93 -171 93 -81 0 -143 -36 -189 -110 l-22 -35 -5 -1280 -5 -1280
-34 -63 c-40 -74 -84 -115 -161 -151 l-55 -26 -2355 0 -2355 0 -55 26 c-77 36
-121 77 -161 151 l-34 63 -3 1728 -2 1727 313 0 313 0 17 -29 c60 -103 139
-170 214 -184 27 -5 184 16 281 38 l22 5 0 -944 c0 -653 3 -961 11 -997 16
-73 83 -142 156 -159 44 -10 61 -9 107 4 54 16 65 26 308 281 139 146 255 264
258 263 4 -2 113 -115 244 -253 130 -137 256 -261 279 -275 88 -52 208 -22
272 68 l30 44 3 333 3 333 195 206 196 206 107 -113 c59 -61 170 -178 247
-259 76 -82 155 -156 174 -165 23 -12 58 -18 101 -18 55 0 72 5 107 27 22 15
54 49 69 75 l28 48 3 648 3 647 22 -5 c96 -22 253 -43 280 -38 75 14 154 81
214 184 l17 29 304 0 c267 0 316 3 404 20 381 78 676 357 780 739 32 115 32
372 -1 491 -27 102 -84 227 -145 319 -98 147 -297 305 -466 370 -139 54 -202
63 -491 68 l-266 5 -29 61 c-16 34 -55 101 -86 149 -104 160 -174 217 -263
218 -84 0 -469 -84 -667 -146 -190 -60 -447 -170 -579 -250 l-57 -34 -420 0
-421 0 -52 31 c-274 161 -668 297 -1082 374 -164 30 -199 31 -252 6z m270
-441 c195 -37 479 -126 658 -206 102 -46 261 -135 306 -171 23 -19 23 -20 7
-66 -23 -68 -24 -768 -1 -843 8 -27 15 -52 15 -56 0 -22 -276 -169 -448 -237
-163 -65 -546 -170 -619 -171 -19 0 -32 20 -83 123 -119 244 -169 508 -157
832 9 252 57 476 141 660 49 106 84 157 104 151 9 -2 44 -10 77 -16z m3192
-22 c188 -299 255 -838 157 -1278 -32 -143 -63 -229 -126 -352 -40 -78 -54
-98 -71 -98 -72 1 -434 100 -606 166 -177 69 -461 218 -461 242 0 4 7 29 15
56 23 75 22 775 -1 843 l-16 47 27 22 c88 70 330 188 521 254 152 52 444 130
526 139 4 1 20 -18 35 -41z m-3897 -370 c0 -2 -7 -41 -16 -88 -9 -51 -17 -180
-21 -320 -6 -262 6 -405 53 -606 14 -60 28 -119 31 -131 l5 -23 -178 0 c-118
0 -203 5 -249 15 -269 57 -465 299 -465 575 0 75 32 197 70 269 86 161 258
279 440 301 60 7 330 13 330 8z m4903 -28 c372 -116 528 -530 326 -866 -74
-123 -225 -228 -374 -259 -75 -16 -425 -22 -425 -7 0 4 11 50 24 102 52 204
61 295 61 590 0 217 -4 294 -18 368 -9 50 -17 95 -17 99 0 3 80 3 178 0 141
-4 191 -10 245 -27z m-2503 -444 l0 -293 -92 -7 c-50 -3 -122 -6 -160 -6 l-68
0 0 300 0 300 160 0 160 0 0 -294z m-360 -1698 l0 -953 -148 153 c-155 161
-186 182 -265 182 -51 0 -138 -40 -166 -76 -11 -14 -69 -77 -130 -140 l-111
-115 2 736 3 737 120 44 c228 84 534 250 660 358 17 14 31 25 33 26 1 0 2
-429 2 -952z m566 834 c126 -86 360 -203 529 -266 l120 -44 3 -408 2 -408
-152 156 c-135 137 -158 157 -200 168 -51 13 -104 8 -153 -17 -16 -9 -89 -77
-162 -152 l-132 -136 -1 604 c0 590 0 603 19 590 10 -8 67 -47 127 -87z"/>
</g>
</svg>
